<?xml version="1.0" encoding="UTF-8"?>
<svg width="256" height="256" viewBox="0 0 256 256" fill="none" xmlns="http://www.w3.org/2000/svg" role="img" aria-label="SkillSwap Hub logo">
  <defs>
    <linearGradient id="bg" x1="0" y1="0" x2="1" y2="1">
      <stop offset="0%" stop-color="#4F46E5"/>
      <stop offset="50%" stop-color="#9333EA"/>
      <stop offset="100%" stop-color="#06B6D4"/>
    </linearGradient>
    <radialGradient id="glow" cx="50%" cy="40%" r="60%">
      <stop offset="0%" stop-color="#FFFFFF" stop-opacity="0.6"/>
      <stop offset="100%" stop-color="#FFFFFF" stop-opacity="0"/>
    </radialGradient>
    <filter id="shadow" x="-20%" y="-20%" width="140%" height="140%">
      <feDropShadow dx="0" dy="6" stdDeviation="8" flood-color="#0F172A" flood-opacity="0.35"/>
    </filter>
  </defs>

  <circle cx="128" cy="128" r="112" fill="url(#bg)" filter="url(#shadow)"/>
  <circle cx="128" cy="96" r="88" fill="url(#glow)"/>

  <!-- Swap arrows -->
  <path d="M78 130c0-20 16-36 36-36h32" stroke="#FFFFFF" stroke-width="14" stroke-linecap="round"/>
  <path d="M146 82l24 12-24 12" fill="none" stroke="#FFFFFF" stroke-width="14" stroke-linecap="round" stroke-linejoin="round"/>
  <path d="M178 126c0 20-16 36-36 36h-32" stroke="#FFFFFF" stroke-width="14" stroke-linecap="round"/>
  <path d="M110 174l-24-12 24-12" fill="none" stroke="#FFFFFF" stroke-width="14" stroke-linecap="round" stroke-linejoin="round"/>

  <!-- Hub sparkle -->
  <path d="M128 52l8 16 16 8-16 8-8 16-8-16-16-8 16-8 8-16z" fill="#FDE68A"/>
  <circle cx="188" cy="82" r="6" fill="#E0F2FE"/>
  <circle cx="68" cy="172" r="5" fill="#E0F2FE"/>
</svg>
